<?xml version="1.0" standalone="no"?>
<!DOCTYPE svg PUBLIC "-//W3C//DTD SVG 20010904//EN"
 "http://www.w3.org/TR/2001/REC-SVG-20010904/DTD/svg10.dtd">
<svg version="1.0" xmlns="http://www.w3.org/2000/svg"
 width="1200.000000pt" height="1200.000000pt" viewBox="0 0 1200.000000 1200.000000"
 preserveAspectRatio="xMidYMid meet">
<metadata>
Created by potrace 1.11, written by Peter Selinger 2001-2013
</metadata>
<g transform="translate(0.000000,1200.000000) scale(0.100000,-0.100000)"
fill="#000000" stroke="none">
<path d="M11727 11424 c-4 -4 -112 -20 -202 -29 -33 -4 -67 -8 -75 -10 -8 -2
-42 -7 -75 -10 -33 -4 -71 -8 -85 -10 -51 -8 -111 -15 -360 -45 -140 -17 -271
-33 -290 -35 -19 -3 -107 -14 -195 -25 -88 -11 -176 -23 -195 -25 -19 -3 -93
-12 -165 -20 -71 -9 -143 -18 -160 -20 -16 -3 -66 -9 -110 -14 -97 -12 -478
-60 -520 -66 -16 -2 -50 -6 -75 -9 -70 -9 -116 -15 -245 -31 -66 -9 -138 -18
-160 -21 -22 -2 -51 -7 -65 -9 -14 -3 -47 -7 -75 -10 -27 -3 -122 -14 -210
-25 -230 -29 -237 -30 -265 -35 -14 -2 -47 -7 -75 -10 -27 -3 -63 -8 -80 -10
-16 -3 -122 -16 -235 -30 -113 -14 -223 -28 -245 -31 -22 -4 -51 -7 -65 -9
-121 -12 -157 -17 -170 -20 -8 -2 -40 -7 -70 -10 -96 -12 -124 -15 -160 -20
-19 -3 -53 -7 -75 -10 -106 -12 -133 -16 -165 -20 -19 -3 -55 -7 -80 -10 -81
-10 -122 -15 -149 -19 -14 -3 -51 -7 -81 -10 -30 -4 -66 -8 -80 -10 -14 -2
-51 -7 -84 -11 -32 -4 -68 -8 -80 -10 -32 -5 -116 -16 -161 -21 -22 -2 -74 -8
-115 -14 -41 -5 -93 -12 -115 -14 -68 -8 -218 -27 -252 -32 -18 -2 -48 -6 -65
-8 -18 -3 -58 -8 -88 -11 -30 -3 -93 -10 -140 -15 -133 -16 -244 -27 -350 -35
-41 -4 -82 -8 -90 -10 -8 -2 -53 -7 -99 -10 -47 -4 -93 -8 -103 -10 -9 -2 -55
-7 -100 -10 -46 -3 -94 -8 -108 -10 -14 -2 -59 -6 -100 -10 -41 -4 -86 -8
-100 -10 -14 -2 -58 -7 -97 -10 -40 -3 -83 -8 -95 -10 -12 -3 -50 -7 -83 -10
-84 -7 -156 -15 -185 -20 -14 -2 -59 -7 -100 -10 -41 -4 -86 -8 -100 -10 -14
-2 -54 -6 -90 -10 -36 -3 -81 -8 -100 -10 -111 -12 -140 -15 -190 -20 -95 -9
-154 -15 -185 -20 -16 -3 -56 -7 -87 -10 -120 -12 -155 -15 -228 -25 -41 -5
-100 -12 -130 -15 -30 -3 -62 -8 -70 -10 -8 -2 -49 -7 -90 -10 -41 -3 -86 -8
-100 -10 -14 -2 -50 -7 -80 -10 -51 -6 -83 -9 -170 -20 -19 -3 -75 -9 -125
-15 -94 -11 -153 -19 -195 -25 -14 -2 -52 -7 -85 -10 -33 -4 -67 -8 -75 -10
-8 -2 -44 -7 -80 -10 -36 -3 -72 -8 -80 -10 -8 -2 -44 -7 -80 -10 -36 -4 -68
-9 -71 -10 -3 -2 -32 -6 -65 -9 -32 -4 -70 -8 -84 -11 -14 -3 -43 -7 -65 -10
-22 -3 -69 -10 -105 -16 -36 -5 -78 -12 -95 -14 -95 -15 -337 -55 -370 -62
-11 -2 -45 -8 -75 -14 -89 -16 -273 -69 -293 -84 -44 -32 -31 -57 233 -439 22
-33 394 -528 413 -551 9 -11 111 -141 228 -290 116 -148 223 -284 238 -301 14
-18 40 -49 56 -70 157 -199 734 -911 955 -1179 63 -77 131 -160 151 -185 32
-39 513 -622 557 -675 231 -276 437 -524 510 -615 51 -63 105 -131 121 -150
15 -19 94 -118 175 -220 81 -102 152 -192 159 -200 12 -14 306 -387 529 -670
54 -69 171 -217 259 -330 88 -113 187 -239 220 -280 32 -41 105 -134 161 -206
57 -72 115 -146 130 -165 15 -19 66 -83 113 -144 48 -60 94 -119 104 -130 9
-11 30 -38 46 -60 16 -22 32 -42 35 -45 4 -3 89 -111 190 -240 102 -129 189
-240 195 -246 5 -7 19 -24 30 -40 11 -15 25 -32 30 -38 6 -6 31 -38 57 -71
103 -129 387 -487 425 -535 7 -8 110 -136 229 -285 119 -148 230 -288 247
-309 18 -22 106 -130 196 -240 91 -111 232 -284 314 -386 162 -201 185 -220
234 -191 24 15 38 42 82 162 29 79 70 189 91 244 21 55 59 154 85 220 25 66
49 129 54 140 12 26 23 57 26 70 2 6 12 32 24 57 11 26 21 50 21 53 0 4 24 68
54 143 67 170 371 981 541 1442 222 601 256 694 272 740 8 25 19 54 24 65 5
11 36 97 70 190 109 305 385 1062 414 1135 8 19 48 130 90 245 43 116 81 219
86 230 5 11 20 54 35 95 14 41 32 89 39 105 7 17 45 118 84 225 39 107 76 204
80 215 5 11 14 34 19 50 6 17 21 59 35 95 13 36 54 146 91 245 36 99 70 189
75 200 5 11 16 43 26 70 9 28 21 59 25 70 5 11 48 126 96 255 47 129 90 244
95 255 5 11 24 63 43 115 19 52 46 124 59 160 13 36 115 310 226 610 112 300
207 554 212 565 5 11 90 238 190 505 99 267 224 600 276 740 101 269 351 947
385 1040 11 30 24 63 30 74 17 31 12 96 -9 111 -20 15 -50 25 -56 19z"/>
</g>
</svg>
